<svg width="40" height="40" viewBox="0 0 40 40" fill="none" xmlns="http://www.w3.org/2000/svg">
<rect width="40" height="40" fill="#1C1917"/>
<path d="M14.0411 23.9129H8V31H14.9495V24.825C14.9495 24.2882 14.575 23.9129 14.0411 23.9129ZM17.3017 7H8V14.0871H17.3555C21.4183 14.0871 24.7327 17.4164 24.7327 21.4964V31H31.7892V21.5503C31.7361 13.4964 25.2673 7 17.3017 7ZM17.1948 15.4292H8V22.517H14.3611C14.6288 22.5178 14.8935 22.5708 15.1402 22.6733C15.3869 22.7757 15.6112 22.9267 15.7996 23.1159C15.988 23.305 16.1376 23.5301 16.24 23.7768C16.3417 24.0243 16.394 24.289 16.3933 24.5559V30.9993H23.3428V21.6041C23.3428 18.2217 20.6168 15.4299 17.1948 15.4292Z" fill="white"/>
</svg>
